{"title":"Logan.Lucky.2017.CAM.XViD-26k","magnet":"magnet:?xt=urn:btih:f91164c66a1b23b4324409980ec1925e5cdb6818&dn=Logan.Lucky.2017.CAM.XViD-26k&tr=udp%3A%2F%2Ftracker.leechers-paradise.org%3A6969&tr=udp%3A%2F%2Fzer0day.ch%3A1337&tr=udp%3A%2F%2Fopen.demonii.com%3A1337&tr=udp%3A%2F%2Ftracker.coppersurfer.tk%3A6969&tr=udp%3A%2F%2Fexodus.desync.com%3A6969","uploader":"makintos13","categoryP":"video","categoryS":"movies","size":"1530477697","seeders":"212","leechers":"230","description":"screens:\r\n <a href=\"\nhttps://imgmak.com/70V\" rel=\"nofollow\" target=\"_NEW\">\nhttps://imgmak.com/70V</a>\r\n <a href=\"\nhttps://imgmak.com/70e\" rel=\"nofollow\" target=\"_NEW\">\nhttps://imgmak.com/70e</a>\r\n <a href=\"\nhttps://imgmak.com/70g\" rel=\"nofollow\" target=\"_NEW\">\nhttps://imgmak.com/70g</a>\r\n <a href=\"\nhttps://imgmak.com/70o\" rel=\"nofollow\" target=\"_NEW\">\nhttps://imgmak.com/70o</a>\r\n\r\n\r\n\r\n\r\n\r\nComplete name               : Logan.Lucky.2017.CAM.XViD-26k.avi\r\nFormat                      : AVI\r\nFormat/Info                 : Audio Video Interleave\r\nFile size                   : 1.37 GiB\r\nDuration                    : 1h 58mn\r\nOverall bit rate            : 1 660 Kbps\r\nWriting library             : VirtualDub build 32839/release\r\n\r\nVideo\r\nID                          : 0\r\nFormat                      : MPEG-4 Visual\r\nFormat profile              : Advanced <a href=\"/cdn-cgi/l/email-protection\" class=\"__cf_email__\" data-cfemail=\"cd9ea4a0bda1a88d81f8\">[email&#xA0;protected]</a>\r\nFormat settings, BVOP       : 2\r\nFormat settings, QPel       : Yes\r\nFormat settings, GMC        : No warppoints\r\nFormat settings, Matrix     : Default (H.263)\r\nMuxing mode                 : Packed bitstream\r\nCodec ID                    : XVID\r\nCodec ID/Hint               : XviD\r\nDuration                    : 1h 58mn\r\nBit rate                    : 1 521 Kbps\r\nWidth                       : 720 pixels\r\nHeight                      : 304 pixels\r\nDisplay aspect ratio        : 2.35:1\r\nFrame rate                  : 29.970 fps\r\nColor space                 : YUV\r\nChroma subsampling          : 4:2:0\r\nBit depth                   : 8 bits\r\nScan type                   : Progressive\r\nCompression mode            : Lossy\r\nBits/(Pixel*Frame)          : 0.232\r\nStream size                 : 1.26 GiB (92%)\r\nWriting library             : XviD 67\r\n\r\nAudio\r\nID                          : 1\r\nFormat                      : MPEG Audio\r\nFormat version              : Version 1\r\nFormat profile              : Layer 3\r\nMode                        : Joint stereo\r\nMode extension              : MS Stereo\r\nCodec ID                    : 55\r\nCodec ID/Hint               : MP3\r\nDuration                    : 1h 58mn\r\nBit rate mode               : Constant\r\nBit rate                    : 128 Kbps\r\nChannel(s)                  : 2 channels\r\nSampling rate               : 48.0 KHz\r\nCompression mode            : Lossy\r\nStream size                 : 108 MiB (8%)\r\nAlignment                   : Split accross interleaves\r\nInterleave, duration        : 33 ms (1.00 video frame)\r\n\r\nTook the source we were passed and went to work crop, resize, denoise and few other tweaks then just remuxed audio.. ENJOY","last_updated":"2017-09-06T12:03:53.676Z","parsed":{"xt":"urn:btih:f91164c66a1b23b4324409980ec1925e5cdb6818","dn":"Logan.Lucky.2017.CAM.XViD-26k","tr":["udp://exodus.desync.com:6969","udp://open.demonii.com:1337","udp://tracker.coppersurfer.tk:6969","udp://tracker.leechers-paradise.org:6969","udp://zer0day.ch:1337"],"infoHash":"f91164c66a1b23b4324409980ec1925e5cdb6818","infoHashBuffer":{"type":"Buffer","data":[249,17,100,198,106,27,35,180,50,68,9,152,14,193,146,94,92,219,104,24]},"name":"Logan.Lucky.2017.CAM.XViD-26k","announce":["udp://exodus.desync.com:6969","udp://open.demonii.com:1337","udp://tracker.coppersurfer.tk:6969","udp://tracker.leechers-paradise.org:6969","udp://zer0day.ch:1337"],"urlList":[]}}